<?xml version="1.0" standalone="no"?>
<!DOCTYPE svg PUBLIC "-//W3C//DTD SVG 20010904//EN"
 "http://www.w3.org/TR/2001/REC-SVG-20010904/DTD/svg10.dtd">
<svg version="1.0" xmlns="http://www.w3.org/2000/svg"
 width="512.000000pt" height="512.000000pt" viewBox="0 0 512.000000 512.000000"
 preserveAspectRatio="xMidYMid meet">

<g transform="translate(0.000000,512.000000) scale(0.100000,-0.100000)"
fill="#000000" stroke="none">
<path d="M950 3614 c-242 -19 -334 -29 -515 -55 -116 -16 -217 -32 -227 -35
-38 -12 -149 -377 -185 -614 -24 -163 -24 -531 0 -690 23 -147 68 -335 113
-469 73 -221 248 -532 414 -737 98 -122 287 -303 419 -403 442 -332 924 -493
1481 -493 334 0 601 50 900 168 473 187 891 533 1165 965 66 103 152 267 192
365 l20 50 126 23 c155 28 201 53 241 132 25 52 26 57 26 250 l0 196 -217 5
c-128 3 -230 10 -246 17 -39 15 -142 115 -161 156 -20 41 -21 115 -2 158 7 18
32 53 54 78 l41 46 -72 22 c-252 74 -412 92 -917 100 -517 9 -509 8 -751 159
-449 280 -888 485 -1228 575 -113 29 -122 30 -371 32 -140 2 -275 1 -300 -1z
m1621 -777 c29 -16 54 -40 74 -72 28 -45 30 -55 30 -146 0 -92 -2 -100 -30
-141 -17 -23 -51 -54 -75 -68 -42 -23 -55 -25 -178 -25 l-134 0 -29 33 -30 34
3 180 3 180 28 24 c27 23 35 24 161 24 120 0 137 -2 177 -23z m1368 -623 c68
-22 124 -59 179 -119 72 -79 96 -145 96 -265 0 -123 -24 -187 -102 -271 -157
-170 -404 -180 -571 -24 -85 80 -131 183 -131 295 0 271 270 467 529 384z"/>
</g>
</svg>
