<?xml version="1.0" standalone="no"?>
<!DOCTYPE svg PUBLIC "-//W3C//DTD SVG 20010904//EN"
 "http://www.w3.org/TR/2001/REC-SVG-20010904/DTD/svg10.dtd">
<svg version="1.0" xmlns="http://www.w3.org/2000/svg"
 width="512.000000pt" height="512.000000pt" viewBox="0 0 512.000000 512.000000"
 preserveAspectRatio="xMidYMid meet">

<g transform="translate(0.000000,512.000000) scale(0.100000,-0.100000)"
fill="#000000" stroke="none">
<path d="M80 4320 l0 -720 720 0 720 0 0 280 0 280 160 0 160 0 0 -234 c0
-235 0 -235 -22 -241 -48 -15 -189 -118 -245 -179 -190 -208 -257 -489 -179
-756 l24 -84 -26 -51 c-23 -43 -27 -62 -27 -135 1 -77 4 -91 34 -148 53 -98
140 -157 250 -168 l59 -7 23 -51 c29 -62 138 -175 199 -206 25 -12 46 -23 47
-24 2 -2 -7 -30 -18 -64 -19 -55 -24 -62 -47 -62 -37 0 -215 -45 -282 -70
-368 -143 -667 -466 -776 -838 -43 -147 -54 -256 -54 -519 l0 -243 1280 0
1280 0 0 520 0 519 33 5 c202 29 323 64 452 128 132 67 215 127 326 238 169
168 253 309 336 570 40 124 57 160 115 248 39 59 75 128 84 160 34 115 -4 242
-97 326 l-49 44 0 197 c0 236 -6 261 -75 330 -101 102 -229 102 -330 0 -66
-65 -75 -99 -75 -274 0 -128 -2 -141 -17 -141 -68 -1 -171 -91 -203 -176 -28
-77 -25 -128 15 -253 19 -59 35 -114 35 -122 0 -8 -16 -47 -35 -87 -125 -261
-350 -445 -643 -524 -67 -18 -108 -21 -306 -22 l-229 -1 -18 54 c-11 30 -18
55 -16 56 1 2 22 13 47 25 61 31 170 144 199 206 l23 51 60 7 c70 7 166 54
204 99 14 16 37 53 52 81 22 43 26 64 26 136 0 72 -4 93 -26 135 l-26 51 26
84 c33 109 37 306 9 410 -39 143 -129 294 -232 388 l-57 52 156 0 156 0 0 280
0 280 160 0 160 0 0 -280 0 -280 720 0 720 0 0 720 0 720 -720 0 -720 0 0
-360 0 -360 -160 0 -160 0 0 360 0 360 -720 0 -720 0 0 -360 0 -360 -160 0
-160 0 0 360 0 360 -720 0 -720 0 0 -720z m1280 0 l0 -560 -560 0 -560 0 0
560 0 560 560 0 560 0 0 -560z m1760 0 l0 -560 -560 0 -560 0 0 560 0 560 560
0 560 0 0 -560z m1760 0 l0 -560 -560 0 -560 0 0 560 0 560 560 0 560 0 0
-560z m-2235 -745 c217 -59 394 -237 449 -452 30 -116 14 -353 -23 -337 -9 3
-37 9 -63 11 l-48 6 0 47 c0 115 -79 222 -190 258 -19 7 -98 16 -175 22 -198
14 -407 69 -563 149 l-40 21 -59 -43 c-134 -99 -229 -254 -249 -407 l-6 -48
-47 -5 c-25 -2 -53 -8 -62 -11 -26 -11 -43 91 -37 221 4 84 11 123 31 176 85
219 284 378 511 407 116 14 500 5 571 -15z m1708 -306 c40 -18 47 -49 47 -208
l0 -148 -47 23 c-25 13 -61 24 -80 24 l-33 0 0 125 c0 131 8 166 44 183 28 14
40 14 69 1z m-2261 -198 c156 -62 325 -98 505 -108 126 -7 161 -21 188 -73 14
-27 16 -72 13 -338 l-3 -307 -26 -56 c-33 -71 -87 -125 -158 -158 -55 -26 -58
-26 -291 -26 -233 0 -236 0 -291 26 -71 33 -125 87 -158 158 -26 55 -26 59
-29 321 -4 292 2 349 48 445 27 56 101 145 121 145 5 0 41 -13 81 -29z m2208
-291 c45 -45 20 -82 -80 -115 -44 -15 -80 -32 -80 -39 0 -28 43 -136 54 -136
26 0 162 52 197 75 23 15 46 43 60 74 13 28 28 50 32 51 16 0 57 -54 68 -91 7
-20 9 -53 5 -72 -6 -35 -99 -187 -113 -187 -4 0 -91 28 -194 62 l-186 62 -32
99 c-35 104 -35 138 -5 185 24 37 70 51 167 52 74 0 90 -3 107 -20z m-2620
-301 l0 -161 -32 7 c-71 15 -128 86 -128 157 0 48 39 109 85 135 76 43 75 44
75 -138z m1375 126 c108 -81 70 -251 -62 -280 l-33 -7 0 162 0 163 32 -7 c17
-3 46 -17 63 -31z m1166 -367 l156 -53 -36 -110 c-68 -203 -145 -332 -280
-466 -196 -196 -421 -297 -718 -322 l-143 -11 0 -518 0 -518 -287 2 -286 3
-70 313 -69 313 28 74 29 75 72 -72 c68 -67 72 -70 78 -47 3 13 37 166 75 339
38 173 72 325 75 338 5 21 9 22 139 22 73 0 171 7 217 15 341 59 640 278 806
590 24 47 48 85 52 85 3 0 77 -24 162 -52z m-1695 -469 l22 -66 -114 -114
-114 -114 -114 114 -114 114 19 56 c11 31 21 62 24 69 3 10 46 12 186 10 l182
-3 23 -66z m-726 -212 c0 -3 135 -614 145 -656 6 -23 10 -20 78 47 l72 72 29
-75 28 -74 -69 -313 -70 -313 -286 -3 -287 -2 0 400 0 400 -80 0 -80 0 0 -400
0 -400 -161 0 -162 0 6 187 c7 204 25 315 71 438 120 314 370 560 683 671 66
23 83 27 83 21z m572 -364 l46 -48 -36 -92 c-33 -83 -40 -93 -62 -93 -22 0
-29 10 -62 93 l-36 92 46 48 c25 26 49 47 52 47 3 0 27 -21 52 -47z m22 -655
c31 -145 60 -271 62 -280 5 -17 -6 -18 -136 -18 -130 0 -141 1 -136 18 2 9 31
135 62 280 46 208 61 262 74 262 13 0 28 -54 74 -262z"/>
<path d="M400 4640 l0 -80 400 0 400 0 0 80 0 80 -400 0 -400 0 0 -80z"/>
<path d="M400 4320 l0 -80 400 0 400 0 0 80 0 80 -400 0 -400 0 0 -80z"/>
<path d="M400 4000 l0 -80 400 0 400 0 0 80 0 80 -400 0 -400 0 0 -80z"/>
<path d="M2160 4640 l0 -80 400 0 400 0 0 80 0 80 -400 0 -400 0 0 -80z"/>
<path d="M2160 4320 l0 -80 400 0 400 0 0 80 0 80 -400 0 -400 0 0 -80z"/>
<path d="M2160 4000 l0 -80 400 0 400 0 0 80 0 80 -400 0 -400 0 0 -80z"/>
<path d="M3920 4640 l0 -80 400 0 400 0 0 80 0 80 -400 0 -400 0 0 -80z"/>
<path d="M3920 4320 l0 -80 400 0 400 0 0 80 0 80 -400 0 -400 0 0 -80z"/>
<path d="M3920 4000 l0 -80 400 0 400 0 0 80 0 80 -400 0 -400 0 0 -80z"/>
</g>
</svg>
