<?xml version="1.0" standalone="no"?>
<!DOCTYPE svg PUBLIC "-//W3C//DTD SVG 20010904//EN"
 "http://www.w3.org/TR/2001/REC-SVG-20010904/DTD/svg10.dtd">
<svg version="1.0" xmlns="http://www.w3.org/2000/svg"
 width="512.000000pt" height="512.000000pt" viewBox="0 0 512.000000 512.000000"
 preserveAspectRatio="xMidYMid meet">

<g transform="translate(0.000000,512.000000) scale(0.100000,-0.100000)"
fill="#000000" stroke="none">
<path d="M629 4326 c-94 -25 -192 -101 -242 -187 -59 -100 -57 -61 -57 -1291
l0 -1128 -148 0 c-132 0 -151 -2 -165 -18 -15 -16 -17 -49 -17 -258 0 -263 9
-328 58 -418 35 -65 124 -154 188 -188 115 -62 -36 -58 2314 -58 2350 0 2199
-4 2314 58 64 34 153 123 188 188 49 90 58 155 58 420 0 221 -2 242 -18 257
-16 14 -43 17 -165 17 l-147 0 0 1128 c0 987 -2 1135 -16 1187 -30 119 -107
210 -222 267 l-67 33 -1905 2 c-1488 1 -1915 -1 -1951 -11z m3879 -137 c65
-32 99 -66 135 -133 l22 -41 3 -1147 2 -1148 -2110 0 -2110 0 2 1148 3 1147
31 55 c33 58 104 121 158 138 20 6 680 10 1917 11 l1886 1 61 -31z m-2827
-2696 c4 -98 7 -113 35 -163 34 -61 100 -113 165 -130 25 -7 264 -10 701 -8
l663 3 53 29 c98 55 142 145 142 293 l0 83 780 0 780 0 0 -194 c0 -166 -3
-203 -20 -257 -25 -80 -73 -146 -136 -188 -100 -66 67 -61 -2304 -59 l-2155 3
-57 27 c-73 34 -137 98 -174 174 -29 59 -29 60 -32 277 l-4 217 780 0 780 0 3
-107z m1639 20 c0 -103 -22 -154 -80 -184 -33 -18 -71 -19 -680 -19 -732 0
-694 -4 -737 80 -18 35 -23 61 -23 127 l0 83 760 0 760 0 0 -87z"/>
<path d="M2772 3701 c-21 -13 -513 -1381 -510 -1416 2 -19 11 -34 26 -41 36
-18 63 -5 82 40 50 115 490 1350 490 1375 0 42 -51 66 -88 42z"/>
<path d="M1512 3337 c-200 -200 -342 -350 -342 -361 0 -22 641 -681 684 -703
26 -14 31 -13 55 5 56 42 56 42 -280 378 l-314 314 313 313 c200 201 312 320
312 333 0 33 -28 64 -58 64 -23 0 -88 -61 -370 -343z"/>
<path d="M3196 3658 c-9 -12 -16 -31 -16 -42 0 -13 112 -132 312 -333 l313
-313 -313 -313 c-339 -339 -346 -348 -275 -386 18 -9 29 -9 50 3 16 8 175 162
356 343 247 249 327 335 327 353 0 19 -83 107 -342 367 -365 366 -375 374
-412 321z"/>
</g>
</svg>
